<?xml version="1.0" ?><!DOCTYPE svg  PUBLIC '-//W3C//DTD SVG 1.1//EN'  'http://www.w3.org/Graphics/SVG/1.1/DTD/svg11.dtd'><svg height="132px" style="enable-background:new 0 0 138 132;" version="1.1" viewBox="0 0 138 132" width="138px" xml:space="preserve" xmlns="http://www.w3.org/2000/svg" xmlns:xlink="http://www.w3.org/1999/xlink"><style type="text/css">
<![CDATA[
	.st0{fill:#EF3E42;}
	.st1{fill:#FFFFFF;}
	.st2{fill:none;}
	.st3{fill-rule:evenodd;clip-rule:evenodd;fill:#FFFFFF;}
]]>
</style><defs/><path d="M118.2,109.6v4.5c0,1.6-1.3,2.9-2.9,2.9H13.2c-1.6,0-2.9-1.3-2.9-2.9v-9.6V34.8c0-1.6,1.3-2.9,2.9-2.9h4.5v-6.6  c0-2.7,2.2-4.9,4.9-4.9h37.7c5.2,0,6.5,5.9,7.8,9.6h56.6c2.7,0,4.9,2.2,4.9,4.9v69.7c0,2.7-2.2,4.9-4.9,4.9H118.2L118.2,109.6z   M54.8,34.8l2.5,6.7h58c1.6,0,2.9,1.3,2.9,2.9v61.1h6.6c0.5,0,0.8-0.4,0.8-0.8V35c0-0.5-0.4-0.8-0.8-0.8H65.3  c-0.8-2.1-2.3-9.6-5-9.6H22.7c-0.5,0-0.8,0.4-0.8,0.8V32h29.1C52.5,32,54.2,33.3,54.8,34.8L54.8,34.8z"/><rect class="st2" height="132" id="_x3C_Slice_x3E__100_" width="138"/></svg>