<?xml version="1.0" encoding="iso-8859-1"?>
<!-- Generator: Adobe Illustrator 16.0.0, SVG Export Plug-In . SVG Version: 6.00 Build 0)  -->
<!DOCTYPE svg PUBLIC "-//W3C//DTD SVG 1.1//EN" "http://www.w3.org/Graphics/SVG/1.1/DTD/svg11.dtd">
<svg version="1.1" id="Capa_1" xmlns="http://www.w3.org/2000/svg" xmlns:xlink="http://www.w3.org/1999/xlink" x="0px" y="0px"
	 width="612.032px" height="612.032px" viewBox="0 0 612.032 612.032" style="enable-background:new 0 0 612.032 612.032;"
	 xml:space="preserve">
<g>
	<g>
		<path d="M500.766,9.112c0,0-20.503-20.503-41.006,0L41.079,427.793l-10.671,10.671l116.599,116.628l0,0l17.091,17.091l9.456,9.456
			l20.445-20.445l-0.029-0.029l327.183-327.182l0.028,0.029l20.445-20.445l-0.028-0.029l61.307-61.307
			c20.503-20.503,0-41.006,0-41.006L500.766,9.112z M173.467,540.661L71.356,438.551l327.183-327.212L500.65,213.45L173.467,540.661
			z M521.095,193.033L418.984,90.922l61.307-61.307l102.111,102.111L521.095,193.033z"/>
		<polygon points="39.575,572.442 61.09,469.175 30.061,438.146 0.015,612.032 173.525,581.581 164.098,572.183 147.036,555.092 		
			"/>
	</g>
</g>
<g>
</g>
<g>
</g>
<g>
</g>
<g>
</g>
<g>
</g>
<g>
</g>
<g>
</g>
<g>
</g>
<g>
</g>
<g>
</g>
<g>
</g>
<g>
</g>
<g>
</g>
<g>
</g>
<g>
</g>
</svg>
